<?xml version="1.0" encoding="UTF-8"?>
<svg width="204px" height="204px" viewBox="0 0 204 204" version="1.1" xmlns="http://www.w3.org/2000/svg" xmlns:xlink="http://www.w3.org/1999/xlink">
    <title>logo</title>
    <defs>
        <linearGradient x1="18.0819026%" y1="12.7048854%" x2="100%" y2="99.9982764%" id="linearGradient-1">
            <stop stop-color="#FF6F00" offset="0%"></stop>
            <stop stop-color="#FF0000" offset="100%"></stop>
        </linearGradient>
        <linearGradient x1="18.0819026%" y1="21.7463141%" x2="100%" y2="87.8772291%" id="linearGradient-2">
            <stop stop-color="#FF6F00" offset="0%"></stop>
            <stop stop-color="#FF0000" offset="100%"></stop>
        </linearGradient>
    </defs>
    <g id="Lumigo-UI" stroke="none" stroke-width="1" fill="none" fill-rule="evenodd">
        <g id="Artboard" transform="translate(-22.000000, -49.000000)" fill-rule="nonzero">
            <g id="logo" transform="translate(22.000000, 49.000000)">
                <path d="M140.573,47.326 L175.401132,81.7019951 C193.232495,94.2682782 203.886854,114.681293 203.999988,136.49542 C203.599054,164.311793 186.411473,189.121859 160.510179,199.272438 C134.608884,209.423018 105.140871,202.89703 85.9471377,182.759703 L85.9471377,182.759703 L42.493,139.869 L55.382,126.98 L65.6879961,137.151135 L67.2325674,138.647135 L67.2325674,136.500278 C67.2390934,128.778675 68.6053874,121.11855 71.2688529,113.87085 L71.2688529,113.87085 L71.4631386,113.331708 L46.737,88.92 L59.622,76.035 L80.1477095,96.2977085 L80.5168523,96.6571371 L81.1434237,95.8411371 C84.79378,91.087556 89.048957,86.8307462 93.8011373,83.1785665 L93.8011373,83.1785665 L94.6122801,82.5568522 L72.7988528,61.0202821 L85.7625663,48.2168543 L111.121708,73.2651385 L111.330565,73.4691385 L111.869708,73.2651385 C119.10711,70.6027057 126.740158,69.1742799 134.450563,69.0394245 L134.450563,69.0394245 L136.592563,69.0054245 L127.686,60.213 L140.573,47.326 Z M170.749702,100.271094 C156.311426,86.013646 134.691292,81.8894589 116.018458,89.8307377 C97.3456238,97.7720165 85.3190035,116.205668 85.5731378,136.49542 C85.5946239,148.89307 90.3297776,160.818643 98.8185655,169.854276 L98.8185655,169.854276 L100.241708,171.267704 L100.197994,171.32599 L100.76628,171.884561 C110.120319,180.898107 122.611656,185.922857 135.601706,185.897514 C155.89305,185.895826 174.17367,173.637847 181.87899,154.866415 C189.58431,136.094982 185.187978,114.528541 170.749702,100.271094 Z M31.173141,103.083137 L43.995,115.74 L31.105,128.63 L18.1997132,115.891422 L31.173141,103.083137 Z M36.179,52.891 L48.235,64.794 L35.35,77.679 L23.293,65.777 L36.179,52.891 Z M12.9734278,29.9831411 L24.793,41.651 L11.908,54.536 L1.70530257e-13,42.7817117 L12.9734278,29.9831411 Z M116.711,23.774 L129.185,36.086 L116.3,48.971 L103.828,36.657 L116.711,23.774 Z M92.6257088,-6.82121026e-13 L105.323,12.534 L92.442,25.415 L79.6571381,12.7937135 L92.6257088,-6.82121026e-13 Z" id="Combined-Shape" fill="url(#linearGradient-1)"></path>
                <path d="M137.20704,128.666667 L154.378286,136.205696 L163,139.995368 L155.862023,160 L116.137977,160 L109,139.995368 L117.629734,136.205696 L134.80098,128.666667 L134.80098,148.155258 C134.80098,148.824498 135.338334,149.364728 136.00401,149.364728 C136.669687,149.364728 137.20704,148.824498 137.20704,148.155258 L137.20704,148.155258 L137.20704,128.666667 Z M153.656468,120.127809 L153.656468,133.246526 L136.485222,125.707497 L136.485222,125.707497 C136.332838,125.642992 136.172434,125.610739 136.00401,125.610739 C135.835586,125.610739 135.675182,125.642992 135.530818,125.707497 L135.530818,125.707497 L118.343532,133.254589 L118.343532,120.127809 L153.656468,120.127809 Z M146.903461,113 L146.903461,117.708869 L125.096539,117.708869 L125.096539,113 L146.903461,113 Z" id="Combined-Shape" fill="url(#linearGradient-2)"></path>
            </g>
        </g>
    </g>
</svg>